<svg width="20" height="20" viewBox="0 0 20 20" fill="none" xmlns="http://www.w3.org/2000/svg">
<g clip-path="url(#clip0_71_2)">
<ellipse cx="10" cy="10" rx="10" ry="10" transform="matrix(1 8.74228e-08 8.74228e-08 -1 0 20)" fill="#009D9A"/>
<ellipse cx="6" cy="6" rx="6" ry="6" transform="matrix(1 8.74228e-08 8.74228e-08 -1 4 16)" fill="white"/>
<ellipse cx="5" cy="5" rx="5" ry="5" transform="matrix(1 8.74228e-08 8.74228e-08 -1 5 15)" fill="#009D9A"/>
<ellipse cx="4" cy="4" rx="4" ry="4" transform="matrix(1 8.74228e-08 8.74228e-08 -1 6 14)" fill="white"/>
<circle cx="3" cy="3" r="3" transform="matrix(1 0 0 -1 7 13)" fill="#009D9A"/>
<circle cx="2" cy="2" r="2" transform="matrix(1 0 0 -1 8 12)" fill="white"/>
</g>
<defs>
<clipPath id="clip0_71_2">
<rect width="20" height="20" fill="white"/>
</clipPath>
</defs>
</svg>
