<svg width="20" height="20" viewBox="0 0 20 20" fill="none" xmlns="http://www.w3.org/2000/svg">
<g clip-path="url(#clip0_89_16)">
<path fill-rule="evenodd" clip-rule="evenodd" d="M10 20C15.5228 20 20 15.5228 20 10C20 4.47715 15.5228 0 10 0C4.47715 0 0 4.47715 0 10C0 15.5228 4.47715 20 10 20Z" fill="#198038"/>
<path fill-rule="evenodd" clip-rule="evenodd" d="M9.9984 4.07381C11.5088 4.07381 12.7688 4.93061 13.0816 6.07301H6.9192C7.232 4.93061 8.492 4.07381 9.9984 4.07381ZM15.7144 6.09061H14.0312C13.704 4.52741 12.0288 3.33301 9.9992 3.33301C7.9704 3.33301 6.2952 4.52741 5.968 6.09061H4.284C4.1264 6.09061 4 6.19861 4 6.33381V13.6858C4 13.8202 4.1264 13.9282 4.284 13.9282H15.7144C15.8744 13.9282 16 13.8202 16 13.6858V6.33381C16 6.19861 15.8744 6.09061 15.7144 6.09061Z" fill="white"/>
<path fill-rule="evenodd" clip-rule="evenodd" d="M9.66324 8.70395H10.8503L10.0764 9.48562L10.3313 9.74317L11.54 8.52179L10.3313 7.30005L10.0764 7.5576L10.8503 8.33963H9.66324C8.47033 8.33963 7.5 9.32005 7.5 10.5252C7.5 11.7303 8.47033 12.7108 9.66324 12.7108C10.2406 12.7108 10.7838 12.4835 11.1926 12.0705L10.9377 11.8129C10.5972 12.1571 10.1444 12.3464 9.66324 12.3464C8.6694 12.3464 7.86066 11.5294 7.86066 10.5252C7.86066 9.52097 8.6694 8.70395 9.66324 8.70395Z" fill="#4178BE" stroke="#198038" stroke-width="0.5"/>
</g>
<defs>
<clipPath id="clip0_89_16">
<rect width="20" height="20" fill="white"/>
</clipPath>
</defs>
</svg>
