<svg width="20" height="20" viewBox="0 0 20 20" fill="none" xmlns="http://www.w3.org/2000/svg">
<g clip-path="url(#clip0_136_116)">
<path fill-rule="evenodd" clip-rule="evenodd" d="M10 0C4.477 0 0 4.477 0 10C0 15.523 4.477 20 10 20C15.523 20 20 15.523 20 10C20 4.477 15.523 0 10 0Z" fill="#EB6200"/>
<path d="M13.052 16.1481V14.9441C12.3427 14.8881 11.7453 14.7154 11.26 14.4261C10.7747 14.1367 10.3547 13.7821 10 13.3621L11.022 12.4381C11.3113 12.7927 11.6263 13.0774 11.967 13.2921C12.3077 13.5067 12.702 13.6421 13.15 13.6981V10.5621C12.142 10.3474 11.414 10.0231 10.966 9.58908C10.518 9.15508 10.294 8.58341 10.294 7.87408C10.294 7.12741 10.5413 6.53475 11.036 6.09608C11.5307 5.65741 12.2027 5.39141 13.052 5.29808V4.08008H14.242V5.29808C14.8393 5.35408 15.3597 5.50341 15.803 5.74608C16.2463 5.98874 16.6313 6.32008 16.958 6.74008L15.922 7.59408C15.7167 7.32341 15.4717 7.09708 15.187 6.91508C14.9023 6.73308 14.5593 6.60941 14.158 6.54408V9.41408C14.7087 9.53541 15.166 9.68008 15.53 9.84808C15.894 10.0161 16.1903 10.2051 16.419 10.4151C16.6477 10.6251 16.8133 10.8677 16.916 11.1431C17.0187 11.4184 17.07 11.7381 17.07 12.1021C17.07 12.8581 16.825 13.4881 16.335 13.9921C15.845 14.4961 15.1473 14.8041 14.242 14.9161V16.1481H13.052ZM15.6 12.2001C15.6 11.8454 15.4973 11.5537 15.292 11.3251C15.0867 11.0964 14.7087 10.9121 14.158 10.7721V13.6841C14.6153 13.6094 14.97 13.4414 15.222 13.1801C15.474 12.9187 15.6 12.5921 15.6 12.2001ZM11.75 7.80408C11.75 8.19608 11.8643 8.49241 12.093 8.69308C12.3217 8.89374 12.674 9.05941 13.15 9.19008V6.53008C12.702 6.59541 12.3567 6.73541 12.114 6.95008C11.8713 7.16474 11.75 7.44941 11.75 7.80408Z" fill="white"/>
<path fill-rule="evenodd" clip-rule="evenodd" d="M7 13.5978L5 13.73V6.00763L6.98028 6L7 13.5978Z" fill="white"/>
<path fill-rule="evenodd" clip-rule="evenodd" d="M3 12L9 12.029L5.91757 15L3 12Z" fill="white"/>
</g>
<defs>
<clipPath id="clip0_136_116">
<rect width="20" height="20" fill="white"/>
</clipPath>
</defs>
</svg>
